# xmcd
#
# Track frame offsets: 
#        150
#        21578
#        46002
#        72939
#        90314
#        111691
#        130859
#        161494
#        177173
#        195833
#
# Disc length: 3171 seconds
#
# Revision: 1
# Processed by: cddbd v1.5.2PL0 Copyright (c) Steve Scherf et al.
# Submitted via: ExactAudioCopy v1.3
#
DISCID=7e0c610a
DTITLE=Dead Guy Blues - Cold Wind In Cleveland
DYEAR=2009
DGENRE=Electric Blues
TTITLE0=Bad Luck Boogie
TTITLE1=I'm Gonna Leave
TTITLE2=Careful What You Wish For
TTITLE3=I Know You Think I'm Bad
TTITLE4=Throw This Dog a Bone
TTITLE5=That's How I Roll
TTITLE6=Aztec Trot (Jose's Boogie)
TTITLE7=Roadkill
TTITLE8=Pocket Full of Money
TTITLE9=Cold Wind in Cleveland
EXTD=
EXTT0=
EXTT1=
EXTT2=
EXTT3=
EXTT4=
EXTT5=
EXTT6=
EXTT7=
EXTT8=
EXTT9=
PLAYORDER=
